<?xml version="1.0" standalone="no"?>
<!DOCTYPE svg PUBLIC "-//W3C//DTD SVG 20010904//EN"
 "http://www.w3.org/TR/2001/REC-SVG-20010904/DTD/svg10.dtd">
<svg version="1.0" xmlns="http://www.w3.org/2000/svg"
 width="1920pt" height="1920pt" viewBox="0 0 1920 1920"
 preserveAspectRatio="xMidYMid meet">
<g transform="translate(0,1920) scale(0.1,-0.1)"
 fill="#000000" stroke="none">
<path d="M9723 14210 c-93 -33 -236 -113 -334 -187 -233 -175 -392 -407 -465
-681 -32 -119 -44 -342 -24 -474 26 -183 112 -390 258 -622 151 -240 262 -499
314 -731 19 -87 22 -130 22 -330 1 -201 -2 -244 -22 -344 -13 -62 -21 -116
-18 -119 21 -20 197 147 268 253 150 227 208 428 208 720 0 312 -79 577 -263
880 -178 293 -226 420 -234 627 -6 146 11 266 59 413 36 109 178 398 252 515
49 76 59 101 38 99 -4 0 -30 -9 -59 -19z"/>
</g>
</svg> 